<svg width="77" height="77" viewBox="0 0 77 77" fill="none" xmlns="http://www.w3.org/2000/svg">
<path fill-rule="evenodd" clip-rule="evenodd" d="M44.6285 3.08853C44.8033 1.54358 46.185 0.407328 47.7153 0.606088C62.9002 2.30104 74.6965 14.1659 76.3982 29.4544C76.5733 30.9995 75.4673 32.3944 73.937 32.5632C73.8289 32.5745 73.7247 32.5817 73.6204 32.5817C72.2201 32.5817 71.0102 31.5205 70.8498 30.0844C69.4351 17.4246 59.6716 7.59974 47.0973 6.19349C45.5632 6.021 44.4609 4.63352 44.6285 3.08853ZM7.54592 14.317C5.62829 16.9719 5.76232 20.3769 7.8215 24.9331C8.45824 26.3468 7.84012 28.0118 6.43629 28.6568C5.03626 29.3018 3.37551 28.6755 2.73877 27.2618C-0.187977 20.7856 -0.135842 15.3782 2.90261 11.2008C3.54306 10.1133 10.6291 0.955944 17.2608 1.39468C19.1785 1.55218 20.936 2.45593 22.5892 4.07963C24.3431 5.80086 31.727 14.842 32.3189 17.7144C32.9551 20.7905 31.5841 23.1927 30.5827 24.9473L30.5801 24.9518C29.5933 26.6806 29.2508 27.4193 29.5896 28.353C32.0846 34.4954 35.9346 39.5091 40.995 43.1503C42.2496 44.058 42.5401 45.809 41.643 47.0765C41.0993 47.8417 40.2427 48.2538 39.3714 48.2538C38.8091 48.2538 38.2396 48.0851 37.7482 47.7291C31.8165 43.4578 27.3182 37.6228 24.3766 30.3743C23.0845 26.7931 24.6186 24.1081 25.7394 22.1469C26.581 20.6769 27.0464 19.7994 26.849 18.8619C26.3278 17.5082 20.8801 10.2596 18.6869 8.1071C18.0092 7.43586 17.3725 7.0421 16.8996 7.0046C14.3899 6.88835 8.78216 12.2545 7.54592 14.317ZM50.2747 46.7921C52.3597 45.4723 55.2194 43.6762 58.8499 44.4299C61.6986 45.0222 70.6724 52.4584 72.3851 54.2284C73.9977 55.8857 74.8948 57.656 75.0476 59.4935C75.2895 66.397 66.1 73.6193 65.0497 74.2268C63.0428 75.682 60.6931 76.4168 58.0529 76.4168C55.4242 76.4168 52.505 75.6892 49.3435 74.212C37.1825 69.1194 18.7916 52.6309 8.45486 37.4999C7.57982 36.2248 7.90006 34.4738 9.16978 33.5888C10.4395 32.7186 12.1822 33.0299 13.0535 34.316C22.7088 48.4423 40.3587 64.357 51.5927 69.0633C56.1393 71.1855 59.5241 71.317 62.0372 69.502C63.996 68.3019 69.5739 62.7259 69.4734 59.8233C69.4397 59.4821 69.0526 58.8409 68.3936 58.1584C66.2486 55.946 59.0547 50.4636 57.5505 49.8934C56.3516 49.6495 55.1299 50.3624 53.2496 51.5511L52.2816 52.1585C50.9595 52.957 49.2392 52.5221 48.4502 51.1984C47.6532 49.8634 48.0812 48.1348 49.4034 47.3359L50.2747 46.7921ZM57.6916 30.342C57.9521 31.6846 59.1214 32.6143 60.4284 32.6143C60.607 32.6143 60.7898 32.5996 60.9683 32.5658C62.4839 32.2693 63.4705 30.7882 63.1762 29.2658C61.6645 21.4659 55.6847 15.4435 47.9394 13.9248C46.4463 13.666 44.9607 14.626 44.6627 16.1485C44.3684 17.6709 45.3592 19.1522 46.8709 19.4484C52.3704 20.5247 56.6193 24.7996 57.6916 30.342Z" fill="white"/>
</svg>
