<svg width="85" height="77" viewBox="0 0 85 77" fill="none" xmlns="http://www.w3.org/2000/svg">
<path fill-rule="evenodd" clip-rule="evenodd" d="M84.5837 31.3749C84.5837 33.0317 83.2505 34.375 81.6054 34.375L81.5684 34.3001C80.7785 34.3001 80.021 33.984 79.4625 33.4214C78.9041 32.8587 78.5906 32.0958 78.5906 31.3V25.225C78.4896 15.0156 70.2985 6.76407 60.164 6.66249H24.8369C14.7022 6.76407 6.51112 15.0156 6.41029 25.225V51.7752C6.51112 61.9846 14.7022 70.2359 24.8369 70.3373H60.164C70.2985 70.2359 78.4896 61.9846 78.5906 51.7752C78.7606 50.2375 80.0513 49.0743 81.5869 49.0743C83.123 49.0743 84.4132 50.2375 84.5837 51.7752C84.5429 65.3441 73.6336 76.3338 60.164 76.375H24.8369C11.3587 76.3544 0.437487 65.3525 0.416992 51.7752V25.225C0.416992 11.6388 11.3502 0.625 24.8369 0.625H60.164C73.6336 0.6662 84.5429 11.6559 84.5837 25.225V31.3749ZM45.6086 37.8999L62.9183 23.95H62.9558C64.2448 22.9178 66.1171 23.1182 67.162 24.4C67.6599 25.0249 67.8888 25.8245 67.7979 26.6205C67.707 27.4165 67.3038 28.1428 66.678 28.6375L49.3683 42.625C44.9673 46.1928 38.6935 46.1928 34.292 42.625L16.9451 28.6375C15.6726 27.5848 15.4738 25.6985 16.4984 24.4C16.9882 23.7777 17.7055 23.3796 18.4894 23.295C19.2733 23.2104 20.058 23.4464 20.6676 23.95L38.1636 37.8999C40.349 39.6274 43.4232 39.6274 45.6086 37.8999Z" fill="white"/>
</svg>
