<svg width="77" height="77" viewBox="0 0 77 77" fill="none" xmlns="http://www.w3.org/2000/svg">
<path fill-rule="evenodd" clip-rule="evenodd" d="M38.5251 0.583496C44.6592 0.583496 50.7699 2.09664 56.1992 4.95919C74.6843 14.7127 81.7933 37.6868 72.0464 56.1784C65.3985 68.7876 52.3089 76.4168 38.4818 76.4168C35.7807 76.4168 33.0526 76.1264 30.3378 75.525C28.8085 75.1842 27.8434 73.6679 28.1807 72.1379C28.5179 70.608 30.0306 69.6495 31.57 69.9801C45.6909 73.12 60.2695 66.3428 67.0244 53.5296C75.3122 37.8105 69.2683 18.2734 53.5511 9.98292C48.9366 7.54788 43.7409 6.2619 38.522 6.2619H38.4853C20.7178 6.2619 6.2595 20.7218 6.2595 38.4952C6.25282 43.6724 7.51499 48.8264 9.90913 53.406L10.6371 54.829C11.5286 56.4992 11.7256 58.5732 11.1479 60.4505C10.3499 62.5549 9.68542 64.6024 9.13779 66.64C11.2681 65.9985 13.8693 65.0532 15.7492 64.3684L16.5205 64.0913C17.9797 63.5468 19.6192 64.3184 20.1535 65.7949C20.6877 67.2679 19.9231 68.898 18.4505 69.4292L17.6893 69.7063L17.5597 69.7534H17.5595C14.7603 70.7676 10.9913 72.1334 8.43326 72.7059C8.21285 72.7526 7.97579 72.7825 7.75876 72.7761C6.01573 72.7761 4.95391 72.0712 4.36954 71.4767C3.47133 70.5648 3.04394 69.2855 3.09402 67.6755C3.1007 67.4916 3.12405 67.3013 3.16747 67.1178C3.84197 64.2452 4.72016 61.3791 5.78201 58.6032C5.85879 58.3329 5.81204 57.8418 5.59501 57.4308L4.86375 56.0112C2.06224 50.6468 0.576319 44.5778 0.58303 38.4918C0.58303 17.5886 17.5857 0.583496 38.4818 0.583496H38.5251ZM17.2795 38.4967C17.2795 36.0083 19.2997 33.9873 21.7873 33.9873C24.275 33.9873 26.2951 36.0083 26.2951 38.4967C26.2951 40.9818 24.275 43.0028 21.7873 43.0028C19.2997 43.0028 17.2795 40.9818 17.2795 38.4967ZM42.9909 38.4956C42.9909 36.0102 40.9707 33.9862 38.483 33.9862C35.9956 33.9862 33.9754 36.0102 33.9754 38.4956C33.9754 40.9807 35.9956 43.0047 38.483 43.0047C40.9707 43.0047 42.9909 40.9807 42.9909 38.4956ZM55.1788 33.9862C57.6662 33.9862 59.6864 36.0102 59.6864 38.4956C59.6864 40.9807 57.6662 43.0047 55.1788 43.0047C52.6911 43.0047 50.6709 40.9807 50.6709 38.4956C50.6709 36.0102 52.6911 33.9862 55.1788 33.9862Z" fill="white"/>
</svg>
